<?xml version="1.0" standalone="no"?>
<!DOCTYPE svg PUBLIC "-//W3C//DTD SVG 20010904//EN"
 "http://www.w3.org/TR/2001/REC-SVG-20010904/DTD/svg10.dtd">
<svg version="1.0" xmlns="http://www.w3.org/2000/svg"
 width="512.000000pt" height="512.000000pt" viewBox="0 0 512.000000 512.000000"
 preserveAspectRatio="xMidYMid meet">

<g transform="translate(0.000000,512.000000) scale(0.100000,-0.100000)"
fill="#000000" stroke="none">
<path d="M0 2560 l0 -2560 2560 0 2560 0 0 2560 0 2560 -2560 0 -2560 0 0
-2560z m1775 1536 c1372 -466 2064 -709 2110 -741 61 -42 98 -87 133 -163 l27
-57 3 -835 c2 -609 0 -850 -8 -890 -36 -166 -178 -288 -350 -298 -71 -4 -137
7 -292 49 l-38 10 0 105 c0 96 2 105 18 100 80 -24 267 -66 293 -66 50 0 113
36 145 82 l29 41 0 832 0 831 -28 43 c-20 30 -44 50 -80 66 -29 13 -527 186
-1107 385 -957 328 -1060 361 -1107 357 -37 -2 -62 -11 -87 -31 -75 -57 -70
-15 -76 -661 l-5 -580 -100 0 -100 0 0 585 0 585 23 58 c44 109 139 200 245
232 23 8 76 14 117 14 65 1 95 -6 235 -53z m1375 -2091 l0 -1015 -185 0 -185
0 0 1015 0 1015 185 0 185 0 0 -1015z m-570 0 l0 -745 -185 0 -185 0 0 745 0
745 185 0 185 0 0 -745z m-570 0 l0 -585 -185 0 -185 0 0 585 0 585 185 0 185
0 0 -585z m-570 0 l0 -335 -185 0 -185 0 0 335 0 335 185 0 185 0 0 -335z"/>
</g>
</svg>
